Coordinates
version=1
nRows=15
nColumns=19
inDegrees=yes

Units are S.I. units (second, meters, Newtons, ...)
If the header above contains a line with 'inDegrees', this indicates whether rotational values are in degrees (yes) or radians (no).

endheader
time	pelvis_tilt	pelvis_list	pelvis_rotation	pelvis_tx	pelvis_ty	pelvis_tz	hip_flexion_r	hip_adduction_r	hip_rotation_r	knee_angle_r	knee_angle_r_beta	ankle_angle_r	hip_flexion_l	hip_adduction_l	hip_rotation_l	knee_angle_l	knee_angle_l_beta	ankle_angle_l
     16.86000000	     -2.24930197	      9.95164720	      3.58554409	      2.17219079	      1.00475018	      1.01795888	     -8.45098051	    -17.40328706	    -13.44577991	     69.76126253	      1.21756372	     -8.94790766	     22.73918031	     12.53733348	    -11.28035597	     14.12255212	      0.24648503	      2.55236882
     16.86666667	     -2.01334301	     10.44730707	      3.83125534	      2.17111039	      1.00038145	      1.01721622	     -6.92458777	    -18.17016881	    -12.89234792	     73.33357033	      1.27991225	     -8.50847972	     23.01532729	     12.72068652	    -12.27853799	     17.28075813	      0.30160613	      2.94364052
     16.87333333	     -1.77993756	     10.83642122	      3.99239501	      2.16974253	      0.99588728	      1.01676422	     -5.19960696	    -18.72864417	    -12.07477206	     76.82090072	      1.34077765	     -8.01747662	     23.35976005	     12.69306223	    -13.16462231	     20.73824897	      0.36195073	      3.64127635
     16.88000000	     -1.44104570	     11.14268807	      4.04226385	      2.16810361	      0.99143452	      1.01661214	     -3.41219370	    -19.11066742	    -11.05316252	     80.17353923	      1.39929223	     -7.49134935	     23.57222196	     12.52625814	    -13.83690345	     24.27650093	      0.42370487	      4.68421694
     16.88666667	     -1.04805042	     11.37683901	      4.02475457	      2.16619930	      0.98708701	      1.01669277	     -1.53973049	    -19.32405966	     -9.89187960	     83.36543738	      1.45500136	     -6.92399642	     23.66012036	     12.28064486	    -14.26640351	     27.76667136	      0.48461984	      5.98890084
     16.89333333	     -0.23225555	     11.64697899	      3.92354743	      2.16408228	      0.98336192	      1.01696472	     -0.07472059	    -19.51043765	     -8.76020767	     86.29719617	      1.50617021	     -6.28608441	     23.12176584	     12.11998186	    -14.41275062	     30.97160501	      0.54055648	      7.55688094
     16.90000000	     -0.08328339	     11.66848343	      3.76834572	      2.16165708	      0.97912780	      1.01742789	      2.40687460	    -19.29655913	     -7.23361619	     89.17073051	      1.55632284	     -5.75220639	     23.24816803	     11.74324261	    -14.40359496	     34.08490015	      0.59489373	      9.46983334
     16.90666667	      0.44812999	     11.73639015	      3.56480390	      2.15912680	      0.97569045	      1.01796150	      4.45973388	    -19.06448274	     -5.80636422	     91.71112467	      1.60066109	     -5.17849161	     22.71204229	     11.50135318	    -14.20272671	     36.74359527	      0.64129672	     11.50443980
     16.91333333	      1.07011445	     11.73538641	      3.31094963	      2.15641476	      0.97280870	      1.01864519	      6.48062206	    -18.66951032	     -4.37038446	     93.97295225	      1.64013742	     -4.67494517	     21.85747553	     11.25191139	    -13.89476441	     38.98535950	      0.68042288	     13.66623069
     16.92000000	      1.57085327	     11.65495295	      3.05299253	      2.15374192	      0.97031899	      1.01930901	      8.64703778	    -18.11713040	     -2.93861744	     95.93562243	      1.67439248	     -4.21966742	     20.88723116	     10.99816892	    -13.51076901	     40.79494901	      0.71200618	     15.81419452
     16.92666667	      1.96564893	     11.49081684	      2.79326272	      2.15113273	      0.96824040	      1.01997375	     10.92260218	    -17.42455142	     -1.56719968	     97.58648791	      1.70320552	     -3.80752808	     19.77964980	     10.72409048	    -13.07560597	     42.16336370	      0.73588952	     17.96666708
     16.93333333	      2.17708152	     11.24182658	      2.58450582	      2.14880447	      0.96658581	      1.02051138	     13.31854264	    -16.62305569	     -0.33177953	     98.88608227	      1.72588772	     -3.48771519	     18.59970041	     10.43067543	    -12.59694211	     43.08451360	      0.75196662	     19.98674964
     16.94000000	      2.57555383	     11.01660142	      2.58399942	      2.14677564	      0.96582721	      1.02068852	     15.27287622	    -15.95523053	      0.47751408	     99.74495329	      1.74087785	     -3.19766896	     16.90544880	     10.33219215	    -11.76015840	     43.46881563	      0.75867395	     21.79999764
     16.94666667	      2.47555513	     10.37375724	      2.13859585	      2.14505097	      0.96507332	      1.02137905	     17.92145723	    -14.54363796	      1.72161075	    100.31877230	      1.75089288	     -3.06246955	     15.61694126	      9.56281084	    -11.65307811	     43.64623178	      0.76177045	     23.48573405
     16.95333333	      2.44648641	      9.91485027	      2.20732431	      2.14390140	      0.96518491	      1.02127340	     20.06826964	    -13.67158252	      2.20393551	    100.42070577	      1.75267195	     -2.87134506	     13.91414318	      9.28990370	    -10.80366797	     43.24598668	      0.75478486	     24.80252347
